<svg id="visual" viewBox="0 0 900 600" width="900" height="600" xmlns="http://www.w3.org/2000/svg" xmlns:xlink="http://www.w3.org/1999/xlink" version="1.1"><g stroke-width="1" stroke-linejoin="bevel"><path d="M463 288L487 225L399 207Z" fill="#003d8a" stroke="#003d8a"></path><path d="M399 207L381 282L463 288Z" fill="#2d4cb5" stroke="#2d4cb5"></path><path d="M381 282L404 360L463 288Z" fill="#4252ca" stroke="#4252ca"></path><path d="M404 360L530 363L463 288Z" fill="#003574" stroke="#003574"></path><path d="M463 288L530 363L487 225Z" fill="#4252ca" stroke="#4252ca"></path><path d="M381 282L337 365L404 360Z" fill="#00244a" stroke="#00244a"></path><path d="M575 462L613 387L530 363Z" fill="#5958de" stroke="#5958de"></path><path d="M281 286L337 365L381 282Z" fill="#715df2" stroke="#715df2"></path><path d="M274 232L281 286L381 282Z" fill="#003574" stroke="#003574"></path><path d="M399 207L274 232L381 282Z" fill="#003d8a" stroke="#003d8a"></path><path d="M629 282L596 197L487 225Z" fill="#002d5f" stroke="#002d5f"></path><path d="M484 61L384 79L399 207Z" fill="#002d5f" stroke="#002d5f"></path><path d="M484 61L399 207L487 225Z" fill="#003d8a" stroke="#003d8a"></path><path d="M399 207L261 95L274 232Z" fill="#002d5f" stroke="#002d5f"></path><path d="M596 197L484 61L487 225Z" fill="#002d5f" stroke="#002d5f"></path><path d="M530 363L629 282L487 225Z" fill="#001122" stroke="#001122"></path><path d="M274 232L229 277L281 286Z" fill="#001122" stroke="#001122"></path><path d="M281 286L205 414L337 365Z" fill="#5958de" stroke="#5958de"></path><path d="M166 236L229 277L274 232Z" fill="#5958de" stroke="#5958de"></path><path d="M575 462L530 363L530 511Z" fill="#003574" stroke="#003574"></path><path d="M530 363L613 387L629 282Z" fill="#5958de" stroke="#5958de"></path><path d="M264 0L261 95L384 79Z" fill="#001b35" stroke="#001b35"></path><path d="M384 79L261 95L399 207Z" fill="#2d4cb5" stroke="#2d4cb5"></path><path d="M711 185L620 81L596 197Z" fill="#4252ca" stroke="#4252ca"></path><path d="M596 197L620 81L484 61Z" fill="#003d8a" stroke="#003d8a"></path><path d="M469 0L412 0L484 61Z" fill="#001b35" stroke="#001b35"></path><path d="M484 61L412 0L384 79Z" fill="#001122" stroke="#001122"></path><path d="M625 0L469 0L484 61Z" fill="#003574" stroke="#003574"></path><path d="M431 509L530 363L404 360Z" fill="#001122" stroke="#001122"></path><path d="M197 0L211 106L261 95Z" fill="#5958de" stroke="#5958de"></path><path d="M261 95L211 106L274 232Z" fill="#2d4cb5" stroke="#2d4cb5"></path><path d="M613 387L702 261L629 282Z" fill="#002d5f" stroke="#002d5f"></path><path d="M629 282L702 261L596 197Z" fill="#002d5f" stroke="#002d5f"></path><path d="M667 428L702 261L613 387Z" fill="#00244a" stroke="#00244a"></path><path d="M236 462L318 480L337 365Z" fill="#002d5f" stroke="#002d5f"></path><path d="M337 365L318 480L404 360Z" fill="#4252ca" stroke="#4252ca"></path><path d="M318 480L431 509L404 360Z" fill="#2d4cb5" stroke="#2d4cb5"></path><path d="M211 106L166 236L274 232Z" fill="#003574" stroke="#003574"></path><path d="M229 277L205 414L281 286Z" fill="#003d8a" stroke="#003d8a"></path><path d="M702 261L711 185L596 197Z" fill="#2d4cb5" stroke="#2d4cb5"></path><path d="M431 509L530 511L530 363Z" fill="#715df2" stroke="#715df2"></path><path d="M114 285L205 414L229 277Z" fill="#003d8a" stroke="#003d8a"></path><path d="M669 507L667 428L575 462Z" fill="#002d5f" stroke="#002d5f"></path><path d="M575 462L667 428L613 387Z" fill="#001b35" stroke="#001b35"></path><path d="M412 0L264 0L384 79Z" fill="#00244a" stroke="#00244a"></path><path d="M205 414L236 462L337 365Z" fill="#4252ca" stroke="#4252ca"></path><path d="M318 480L376 600L431 509Z" fill="#5958de" stroke="#5958de"></path><path d="M711 185L701 92L620 81Z" fill="#5958de" stroke="#5958de"></path><path d="M620 81L625 0L484 61Z" fill="#00244a" stroke="#00244a"></path><path d="M701 92L625 0L620 81Z" fill="#003d8a" stroke="#003d8a"></path><path d="M166 236L114 285L229 277Z" fill="#002d5f" stroke="#002d5f"></path><path d="M205 414L70 476L236 462Z" fill="#001b35" stroke="#001b35"></path><path d="M80 229L114 285L166 236Z" fill="#001b35" stroke="#001b35"></path><path d="M98 134L166 236L211 106Z" fill="#715df2" stroke="#715df2"></path><path d="M264 0L197 0L261 95Z" fill="#4252ca" stroke="#4252ca"></path><path d="M530 511L669 507L575 462Z" fill="#715df2" stroke="#715df2"></path><path d="M667 428L782 417L702 261Z" fill="#715df2" stroke="#715df2"></path><path d="M711 185L770 114L701 92Z" fill="#00244a" stroke="#00244a"></path><path d="M701 92L733 0L625 0Z" fill="#2d4cb5" stroke="#2d4cb5"></path><path d="M832 192L770 114L711 185Z" fill="#00244a" stroke="#00244a"></path><path d="M832 192L711 185L702 261Z" fill="#00244a" stroke="#00244a"></path><path d="M87 0L98 134L211 106Z" fill="#00244a" stroke="#00244a"></path><path d="M98 134L80 229L166 236Z" fill="#001122" stroke="#001122"></path><path d="M337 600L376 600L318 480Z" fill="#5958de" stroke="#5958de"></path><path d="M431 509L534 600L530 511Z" fill="#003d8a" stroke="#003d8a"></path><path d="M530 511L634 600L669 507Z" fill="#4252ca" stroke="#4252ca"></path><path d="M376 600L534 600L431 509Z" fill="#2d4cb5" stroke="#2d4cb5"></path><path d="M236 462L337 600L318 480Z" fill="#001b35" stroke="#001b35"></path><path d="M770 114L733 0L701 92Z" fill="#4252ca" stroke="#4252ca"></path><path d="M788 488L782 417L667 428Z" fill="#5958de" stroke="#5958de"></path><path d="M828 318L832 192L702 261Z" fill="#001b35" stroke="#001b35"></path><path d="M770 114L813 0L733 0Z" fill="#17459f" stroke="#17459f"></path><path d="M782 417L828 318L702 261Z" fill="#003574" stroke="#003574"></path><path d="M0 332L82 435L114 285Z" fill="#001b35" stroke="#001b35"></path><path d="M114 285L82 435L205 414Z" fill="#003574" stroke="#003574"></path><path d="M236 462L181 600L337 600Z" fill="#003d8a" stroke="#003d8a"></path><path d="M669 507L788 488L667 428Z" fill="#4252ca" stroke="#4252ca"></path><path d="M534 600L634 600L530 511Z" fill="#003574" stroke="#003574"></path><path d="M98 134L0 200L80 229Z" fill="#003574" stroke="#003574"></path><path d="M197 0L87 0L211 106Z" fill="#4252ca" stroke="#4252ca"></path><path d="M680 600L788 488L669 507Z" fill="#5958de" stroke="#5958de"></path><path d="M900 405L900 307L828 318Z" fill="#17459f" stroke="#17459f"></path><path d="M634 600L680 600L669 507Z" fill="#4252ca" stroke="#4252ca"></path><path d="M0 432L70 476L82 435Z" fill="#003d8a" stroke="#003d8a"></path><path d="M82 435L70 476L205 414Z" fill="#4252ca" stroke="#4252ca"></path><path d="M0 332L114 285L80 229Z" fill="#5958de" stroke="#5958de"></path><path d="M0 83L0 200L98 134Z" fill="#00244a" stroke="#00244a"></path><path d="M70 476L181 600L236 462Z" fill="#00244a" stroke="#00244a"></path><path d="M0 200L0 332L80 229Z" fill="#5958de" stroke="#5958de"></path><path d="M900 66L813 0L770 114Z" fill="#001122" stroke="#001122"></path><path d="M900 307L900 200L832 192Z" fill="#001b35" stroke="#001b35"></path><path d="M832 192L900 66L770 114Z" fill="#4252ca" stroke="#4252ca"></path><path d="M900 307L832 192L828 318Z" fill="#00244a" stroke="#00244a"></path><path d="M87 0L0 83L98 134Z" fill="#003d8a" stroke="#003d8a"></path><path d="M900 405L828 318L782 417Z" fill="#4252ca" stroke="#4252ca"></path><path d="M0 332L0 432L82 435Z" fill="#2d4cb5" stroke="#2d4cb5"></path><path d="M70 476L61 600L181 600Z" fill="#001b35" stroke="#001b35"></path><path d="M900 475L782 417L788 488Z" fill="#002d5f" stroke="#002d5f"></path><path d="M900 475L900 405L782 417Z" fill="#715df2" stroke="#715df2"></path><path d="M900 200L900 66L832 192Z" fill="#00244a" stroke="#00244a"></path><path d="M0 432L0 479L70 476Z" fill="#5958de" stroke="#5958de"></path><path d="M87 0L0 0L0 83Z" fill="#001122" stroke="#001122"></path><path d="M680 600L799 600L788 488Z" fill="#001b35" stroke="#001b35"></path><path d="M900 600L900 475L788 488Z" fill="#003d8a" stroke="#003d8a"></path><path d="M0 479L61 600L70 476Z" fill="#003d8a" stroke="#003d8a"></path><path d="M900 66L900 0L813 0Z" fill="#5958de" stroke="#5958de"></path><path d="M0 479L0 600L61 600Z" fill="#003574" stroke="#003574"></path><path d="M799 600L900 600L788 488Z" fill="#001b35" stroke="#001b35"></path></g></svg>