<svg id="visual" viewBox="0 0 600 600" width="600" height="600" xmlns="http://www.w3.org/2000/svg" xmlns:xlink="http://www.w3.org/1999/xlink" version="1.1"><g stroke-width="1" stroke-linejoin="bevel"><path d="M300.7 306.3L331.3 315.3L322.3 263.7Z" fill="#002d5f" stroke="#002d5f"></path><path d="M311.3 386L375 348.3L331.3 315.3Z" fill="#001b35" stroke="#001b35"></path><path d="M331.3 315.3L402 301.7L322.3 263.7Z" fill="#4252ca" stroke="#4252ca"></path><path d="M375 348.3L402 301.7L331.3 315.3Z" fill="#17459f" stroke="#17459f"></path><path d="M322.3 263.7L241.7 247.7L300.7 306.3Z" fill="#4252ca" stroke="#4252ca"></path><path d="M257.7 409L311.3 386L300.7 306.3Z" fill="#00244a" stroke="#00244a"></path><path d="M300.7 306.3L311.3 386L331.3 315.3Z" fill="#001b35" stroke="#001b35"></path><path d="M400 178L323.3 174L322.3 263.7Z" fill="#5958de" stroke="#5958de"></path><path d="M322.3 263.7L323.3 174L241.7 247.7Z" fill="#001b35" stroke="#001b35"></path><path d="M228.7 199L197 271.7L241.7 247.7Z" fill="#2d4cb5" stroke="#2d4cb5"></path><path d="M241.7 247.7L197 271.7L300.7 306.3Z" fill="#002d5f" stroke="#002d5f"></path><path d="M323.3 174L228.7 199L241.7 247.7Z" fill="#00244a" stroke="#00244a"></path><path d="M189 350.3L257.7 409L300.7 306.3Z" fill="#001b35" stroke="#001b35"></path><path d="M402 301.7L400 178L322.3 263.7Z" fill="#4252ca" stroke="#4252ca"></path><path d="M323.3 174L237 176L228.7 199Z" fill="#715df2" stroke="#715df2"></path><path d="M228.7 199L161.3 265.7L197 271.7Z" fill="#5958de" stroke="#5958de"></path><path d="M197 271.7L189 350.3L300.7 306.3Z" fill="#002d5f" stroke="#002d5f"></path><path d="M311.3 386L388 426L375 348.3Z" fill="#715df2" stroke="#715df2"></path><path d="M375 348.3L436.7 396L402 301.7Z" fill="#4252ca" stroke="#4252ca"></path><path d="M303.7 460.7L388 426L311.3 386Z" fill="#002d5f" stroke="#002d5f"></path><path d="M388 426L436.7 396L375 348.3Z" fill="#001b35" stroke="#001b35"></path><path d="M402 301.7L499.7 237L400 178Z" fill="#17459f" stroke="#17459f"></path><path d="M436.7 396L477.7 301.7L402 301.7Z" fill="#003d8a" stroke="#003d8a"></path><path d="M105.3 202L161.3 265.7L228.7 199Z" fill="#17459f" stroke="#17459f"></path><path d="M197 271.7L158.3 346.3L189 350.3Z" fill="#17459f" stroke="#17459f"></path><path d="M324.3 79.7L295.3 126.3L323.3 174Z" fill="#003574" stroke="#003574"></path><path d="M323.3 174L295.3 126.3L237 176Z" fill="#001122" stroke="#001122"></path><path d="M214 438L303.7 460.7L257.7 409Z" fill="#003d8a" stroke="#003d8a"></path><path d="M257.7 409L303.7 460.7L311.3 386Z" fill="#2d4cb5" stroke="#2d4cb5"></path><path d="M161.3 265.7L158.3 346.3L197 271.7Z" fill="#2d4cb5" stroke="#2d4cb5"></path><path d="M189 350.3L214 438L257.7 409Z" fill="#5958de" stroke="#5958de"></path><path d="M499.7 237L437.7 160.3L400 178Z" fill="#00244a" stroke="#00244a"></path><path d="M400 178L403 105.3L323.3 174Z" fill="#003574" stroke="#003574"></path><path d="M535.3 309.3L499.7 295.3L477.7 301.7Z" fill="#002d5f" stroke="#002d5f"></path><path d="M477.7 301.7L499.7 237L402 301.7Z" fill="#002d5f" stroke="#002d5f"></path><path d="M168.3 427.7L214 438L189 350.3Z" fill="#5958de" stroke="#5958de"></path><path d="M388 426L428 439.7L436.7 396Z" fill="#002d5f" stroke="#002d5f"></path><path d="M513.3 394L535.3 309.3L477.7 301.7Z" fill="#4252ca" stroke="#4252ca"></path><path d="M361.3 491.7L428 439.7L388 426Z" fill="#003d8a" stroke="#003d8a"></path><path d="M499.7 295.3L499.7 237L477.7 301.7Z" fill="#2d4cb5" stroke="#2d4cb5"></path><path d="M295.3 126.3L226.7 121.3L237 176Z" fill="#4252ca" stroke="#4252ca"></path><path d="M237 176L166 120.3L228.7 199Z" fill="#001122" stroke="#001122"></path><path d="M444.7 55.7L403 105.3L437.7 160.3Z" fill="#5958de" stroke="#5958de"></path><path d="M437.7 160.3L403 105.3L400 178Z" fill="#2d4cb5" stroke="#2d4cb5"></path><path d="M295.3 126.3L227.7 70.7L226.7 121.3Z" fill="#002d5f" stroke="#002d5f"></path><path d="M363 537.3L361.3 491.7L344.3 547.3Z" fill="#003574" stroke="#003574"></path><path d="M303.7 460.7L361.3 491.7L388 426Z" fill="#715df2" stroke="#715df2"></path><path d="M158.3 346.3L168.3 427.7L189 350.3Z" fill="#4252ca" stroke="#4252ca"></path><path d="M214 438L233.7 498.3L303.7 460.7Z" fill="#715df2" stroke="#715df2"></path><path d="M158.3 346.3L164 428.7L168.3 427.7Z" fill="#5958de" stroke="#5958de"></path><path d="M194 511.3L233.7 498.3L214 438Z" fill="#2d4cb5" stroke="#2d4cb5"></path><path d="M403 105.3L324.3 79.7L323.3 174Z" fill="#17459f" stroke="#17459f"></path><path d="M513.3 394L477.7 301.7L436.7 396Z" fill="#715df2" stroke="#715df2"></path><path d="M499.7 295.3L535.3 309.3L499.7 237Z" fill="#715df2" stroke="#715df2"></path><path d="M428 439.7L513.3 394L436.7 396Z" fill="#003574" stroke="#003574"></path><path d="M477.7 498.7L513.3 394L428 439.7Z" fill="#002d5f" stroke="#002d5f"></path><path d="M194 511.3L214 438L168.3 427.7Z" fill="#2d4cb5" stroke="#2d4cb5"></path><path d="M198 70.7L166 120.3L226.7 121.3Z" fill="#4252ca" stroke="#4252ca"></path><path d="M226.7 121.3L166 120.3L237 176Z" fill="#4252ca" stroke="#4252ca"></path><path d="M52.7 331.3L108.3 390L158.3 346.3Z" fill="#001b35" stroke="#001b35"></path><path d="M166 120.3L105.3 202L228.7 199Z" fill="#003574" stroke="#003574"></path><path d="M158.3 346.3L108.3 390L164 428.7Z" fill="#4252ca" stroke="#4252ca"></path><path d="M52.7 331.3L158.3 346.3L161.3 265.7Z" fill="#001122" stroke="#001122"></path><path d="M164 428.7L194 511.3L168.3 427.7Z" fill="#4252ca" stroke="#4252ca"></path><path d="M571.3 246.7L548.3 223L499.7 237Z" fill="#4252ca" stroke="#4252ca"></path><path d="M499.7 237L562.3 144.3L437.7 160.3Z" fill="#001b35" stroke="#001b35"></path><path d="M324.3 79.7L227.7 70.7L295.3 126.3Z" fill="#001122" stroke="#001122"></path><path d="M344.3 547.3L361.3 491.7L303.7 460.7Z" fill="#002d5f" stroke="#002d5f"></path><path d="M361.3 491.7L427.7 521.3L428 439.7Z" fill="#4252ca" stroke="#4252ca"></path><path d="M227.7 70.7L198 70.7L226.7 121.3Z" fill="#003574" stroke="#003574"></path><path d="M166 120.3L121.3 136.3L105.3 202Z" fill="#003574" stroke="#003574"></path><path d="M151.3 94.7L121.3 136.3L166 120.3Z" fill="#4252ca" stroke="#4252ca"></path><path d="M535.3 309.3L571.3 246.7L499.7 237Z" fill="#5958de" stroke="#5958de"></path><path d="M600 300.7L571.3 246.7L535.3 309.3Z" fill="#2d4cb5" stroke="#2d4cb5"></path><path d="M444.7 55.7L384 44.7L403 105.3Z" fill="#003d8a" stroke="#003d8a"></path><path d="M403 105.3L384 44.7L324.3 79.7Z" fill="#715df2" stroke="#715df2"></path><path d="M324.3 79.7L264.7 0L227.7 70.7Z" fill="#00244a" stroke="#00244a"></path><path d="M227.7 70.7L185 0L198 70.7Z" fill="#5958de" stroke="#5958de"></path><path d="M444.7 55.7L437.7 160.3L543.3 88.7Z" fill="#003d8a" stroke="#003d8a"></path><path d="M363 537.3L427.7 521.3L361.3 491.7Z" fill="#5958de" stroke="#5958de"></path><path d="M163.3 561.3L194 511.3L105.7 554.3Z" fill="#4252ca" stroke="#4252ca"></path><path d="M233.7 498.3L344.3 547.3L303.7 460.7Z" fill="#003574" stroke="#003574"></path><path d="M310.3 600L344.3 547.3L250.7 600Z" fill="#00244a" stroke="#00244a"></path><path d="M363 537.3L403 600L427.7 521.3Z" fill="#4252ca" stroke="#4252ca"></path><path d="M198 70.7L151.3 94.7L166 120.3Z" fill="#003574" stroke="#003574"></path><path d="M427.7 521.3L477.7 498.7L428 439.7Z" fill="#4252ca" stroke="#4252ca"></path><path d="M600 316.3L600 300.7L535.3 309.3Z" fill="#001122" stroke="#001122"></path><path d="M562.3 144.3L499.7 237L548.3 223Z" fill="#4252ca" stroke="#4252ca"></path><path d="M35.7 249.7L52.7 331.3L161.3 265.7Z" fill="#001b35" stroke="#001b35"></path><path d="M108.3 390L53.7 425L164 428.7Z" fill="#4252ca" stroke="#4252ca"></path><path d="M35.7 249.7L161.3 265.7L105.3 202Z" fill="#003d8a" stroke="#003d8a"></path><path d="M600 316.3L535.3 309.3L600 389Z" fill="#5958de" stroke="#5958de"></path><path d="M600 389L535.3 309.3L513.3 394Z" fill="#5958de" stroke="#5958de"></path><path d="M600 228L548.3 223L571.3 246.7Z" fill="#5958de" stroke="#5958de"></path><path d="M600 228L562.3 144.3L548.3 223Z" fill="#002d5f" stroke="#002d5f"></path><path d="M485.7 600L511.3 499.3L477.7 498.7Z" fill="#17459f" stroke="#17459f"></path><path d="M477.7 498.7L511.3 499.3L513.3 394Z" fill="#002d5f" stroke="#002d5f"></path><path d="M485.7 600L477.7 498.7L427.7 521.3Z" fill="#00244a" stroke="#00244a"></path><path d="M600 300.7L600 228L571.3 246.7Z" fill="#001b35" stroke="#001b35"></path><path d="M27.7 225L105.3 202L37.7 149.3Z" fill="#2d4cb5" stroke="#2d4cb5"></path><path d="M27.7 225L35.7 249.7L105.3 202Z" fill="#002d5f" stroke="#002d5f"></path><path d="M384 0L329.3 0L384 44.7Z" fill="#4252ca" stroke="#4252ca"></path><path d="M384 44.7L329.3 0L324.3 79.7Z" fill="#4252ca" stroke="#4252ca"></path><path d="M198 70.7L185 0L151.3 94.7Z" fill="#4252ca" stroke="#4252ca"></path><path d="M559.3 494.7L600 389L513.3 394Z" fill="#17459f" stroke="#17459f"></path><path d="M329.3 0L264.7 0L324.3 79.7Z" fill="#003574" stroke="#003574"></path><path d="M444.7 55.7L384 0L384 44.7Z" fill="#5958de" stroke="#5958de"></path><path d="M490.7 0L384 0L444.7 55.7Z" fill="#2d4cb5" stroke="#2d4cb5"></path><path d="M600 103.7L543.3 88.7L562.3 144.3Z" fill="#715df2" stroke="#715df2"></path><path d="M562.3 144.3L543.3 88.7L437.7 160.3Z" fill="#002d5f" stroke="#002d5f"></path><path d="M0 348.3L53.7 425L52.7 331.3Z" fill="#001122" stroke="#001122"></path><path d="M52.7 331.3L53.7 425L108.3 390Z" fill="#17459f" stroke="#17459f"></path><path d="M37.7 149.3L105.3 202L121.3 136.3Z" fill="#2d4cb5" stroke="#2d4cb5"></path><path d="M35.7 249.7L0 253.7L52.7 331.3Z" fill="#5958de" stroke="#5958de"></path><path d="M250.7 600L344.3 547.3L233.7 498.3Z" fill="#2d4cb5" stroke="#2d4cb5"></path><path d="M344.3 547.3L403 600L363 537.3Z" fill="#5958de" stroke="#5958de"></path><path d="M250.7 600L233.7 498.3L236 600Z" fill="#17459f" stroke="#17459f"></path><path d="M600 555.3L559.3 494.7L549.3 600Z" fill="#4252ca" stroke="#4252ca"></path><path d="M511.3 499.3L559.3 494.7L513.3 394Z" fill="#17459f" stroke="#17459f"></path><path d="M105.7 554.3L194 511.3L164 428.7Z" fill="#003574" stroke="#003574"></path><path d="M39.7 29.7L37.7 149.3L121.3 136.3Z" fill="#001122" stroke="#001122"></path><path d="M39.7 29.7L121.3 136.3L151.3 94.7Z" fill="#5958de" stroke="#5958de"></path><path d="M236 600L233.7 498.3L194 511.3Z" fill="#715df2" stroke="#715df2"></path><path d="M310.3 600L403 600L344.3 547.3Z" fill="#5958de" stroke="#5958de"></path><path d="M264.7 0L185 0L227.7 70.7Z" fill="#2d4cb5" stroke="#2d4cb5"></path><path d="M163.3 561.3L236 600L194 511.3Z" fill="#2d4cb5" stroke="#2d4cb5"></path><path d="M0 191L0 253.7L27.7 225Z" fill="#715df2" stroke="#715df2"></path><path d="M27.7 225L0 253.7L35.7 249.7Z" fill="#17459f" stroke="#17459f"></path><path d="M600 228L600 123.3L562.3 144.3Z" fill="#5958de" stroke="#5958de"></path><path d="M0 253.7L0 348.3L52.7 331.3Z" fill="#2d4cb5" stroke="#2d4cb5"></path><path d="M600 123.3L600 103.7L562.3 144.3Z" fill="#2d4cb5" stroke="#2d4cb5"></path><path d="M543.3 88.7L490.7 0L444.7 55.7Z" fill="#2d4cb5" stroke="#2d4cb5"></path><path d="M513.3 0L490.7 0L543.3 88.7Z" fill="#002d5f" stroke="#002d5f"></path><path d="M37.7 149.3L0 191L27.7 225Z" fill="#5958de" stroke="#5958de"></path><path d="M53.7 425L105.7 554.3L164 428.7Z" fill="#003d8a" stroke="#003d8a"></path><path d="M163.3 561.3L165.3 600L236 600Z" fill="#00244a" stroke="#00244a"></path><path d="M28.7 501.7L105.7 554.3L53.7 425Z" fill="#00244a" stroke="#00244a"></path><path d="M0 348.3L0 416L53.7 425Z" fill="#003574" stroke="#003574"></path><path d="M105.7 554.3L165.3 600L163.3 561.3Z" fill="#002d5f" stroke="#002d5f"></path><path d="M600 0L513.3 0L543.3 88.7Z" fill="#003574" stroke="#003574"></path><path d="M403 600L485.7 600L427.7 521.3Z" fill="#17459f" stroke="#17459f"></path><path d="M600 555.3L600 503.7L559.3 494.7Z" fill="#17459f" stroke="#17459f"></path><path d="M559.3 494.7L600 503.7L600 389Z" fill="#002d5f" stroke="#002d5f"></path><path d="M185 0L121.3 0L151.3 94.7Z" fill="#5958de" stroke="#5958de"></path><path d="M37.7 149.3L0 123.3L0 191Z" fill="#17459f" stroke="#17459f"></path><path d="M0 416L0 436.7L53.7 425Z" fill="#17459f" stroke="#17459f"></path><path d="M0 436.7L28.7 501.7L53.7 425Z" fill="#001b35" stroke="#001b35"></path><path d="M105.7 554.3L77.7 600L165.3 600Z" fill="#003d8a" stroke="#003d8a"></path><path d="M39.7 29.7L0 123.3L37.7 149.3Z" fill="#4252ca" stroke="#4252ca"></path><path d="M549.3 600L559.3 494.7L511.3 499.3Z" fill="#2d4cb5" stroke="#2d4cb5"></path><path d="M485.7 600L549.3 600L511.3 499.3Z" fill="#5958de" stroke="#5958de"></path><path d="M121.3 0L39.7 29.7L151.3 94.7Z" fill="#003d8a" stroke="#003d8a"></path><path d="M0 436.7L0 501.3L28.7 501.7Z" fill="#001122" stroke="#001122"></path><path d="M28.7 501.7L77.7 600L105.7 554.3Z" fill="#5958de" stroke="#5958de"></path><path d="M121.3 0L62.7 0L39.7 29.7Z" fill="#5958de" stroke="#5958de"></path><path d="M0 600L77.7 600L28.7 501.7Z" fill="#003574" stroke="#003574"></path><path d="M600 103.7L600 0L543.3 88.7Z" fill="#4252ca" stroke="#4252ca"></path><path d="M0 0L0 29.7L39.7 29.7Z" fill="#00244a" stroke="#00244a"></path><path d="M39.7 29.7L0 29.7L0 123.3Z" fill="#4252ca" stroke="#4252ca"></path><path d="M549.3 600L600 600L600 555.3Z" fill="#00244a" stroke="#00244a"></path><path d="M62.7 0L0 0L39.7 29.7Z" fill="#003d8a" stroke="#003d8a"></path><path d="M0 501.3L0 600L28.7 501.7Z" fill="#003574" stroke="#003574"></path></g></svg>