<svg id="visual" viewBox="0 0 540 960" width="540" height="960" xmlns="http://www.w3.org/2000/svg" xmlns:xlink="http://www.w3.org/1999/xlink" version="1.1"><g stroke-width="1" stroke-linejoin="bevel"><path d="M278 505L260 554L275 562Z" fill="#001b35" stroke="#001b35"></path><path d="M260 554L278 580L275 562Z" fill="#001b35" stroke="#001b35"></path><path d="M275 562L336 563L278 505Z" fill="#17459f" stroke="#17459f"></path><path d="M278 580L336 563L275 562Z" fill="#5958de" stroke="#5958de"></path><path d="M158 503L219 572L260 554Z" fill="#003574" stroke="#003574"></path><path d="M260 554L219 572L278 580Z" fill="#715df2" stroke="#715df2"></path><path d="M380 447L275 446L278 505Z" fill="#5958de" stroke="#5958de"></path><path d="M278 505L158 503L260 554Z" fill="#2d4cb5" stroke="#2d4cb5"></path><path d="M219 572L254 638L278 580Z" fill="#17459f" stroke="#17459f"></path><path d="M278 580L315 645L336 563Z" fill="#2d4cb5" stroke="#2d4cb5"></path><path d="M381 633L386 582L336 563Z" fill="#715df2" stroke="#715df2"></path><path d="M336 563L397 474L278 505Z" fill="#003d8a" stroke="#003d8a"></path><path d="M254 638L315 645L278 580Z" fill="#4252ca" stroke="#4252ca"></path><path d="M219 572L241 645L254 638Z" fill="#001b35" stroke="#001b35"></path><path d="M254 638L283 695L315 645Z" fill="#003574" stroke="#003574"></path><path d="M275 446L203 441L278 505Z" fill="#003574" stroke="#003574"></path><path d="M274 403L253 416L275 446Z" fill="#001b35" stroke="#001b35"></path><path d="M275 446L253 416L203 441Z" fill="#4252ca" stroke="#4252ca"></path><path d="M203 441L158 503L278 505Z" fill="#00244a" stroke="#00244a"></path><path d="M219 572L207 666L241 645Z" fill="#001122" stroke="#001122"></path><path d="M380 447L274 403L275 446Z" fill="#002d5f" stroke="#002d5f"></path><path d="M148 394L156 438L203 441Z" fill="#001b35" stroke="#001b35"></path><path d="M411 553L397 474L336 563Z" fill="#001122" stroke="#001122"></path><path d="M386 582L411 553L336 563Z" fill="#00244a" stroke="#00244a"></path><path d="M397 474L380 447L278 505Z" fill="#002d5f" stroke="#002d5f"></path><path d="M403 443L383 441L380 447Z" fill="#001b35" stroke="#001b35"></path><path d="M380 447L383 441L274 403Z" fill="#002d5f" stroke="#002d5f"></path><path d="M203 441L159 467L158 503Z" fill="#715df2" stroke="#715df2"></path><path d="M315 645L381 633L336 563Z" fill="#003d8a" stroke="#003d8a"></path><path d="M386 582L414 607L411 553Z" fill="#003d8a" stroke="#003d8a"></path><path d="M150 637L207 666L219 572Z" fill="#4252ca" stroke="#4252ca"></path><path d="M241 645L283 695L254 638Z" fill="#17459f" stroke="#17459f"></path><path d="M315 645L347 732L381 633Z" fill="#5958de" stroke="#5958de"></path><path d="M159 467L129 527L158 503Z" fill="#4252ca" stroke="#4252ca"></path><path d="M158 503L129 527L219 572Z" fill="#4252ca" stroke="#4252ca"></path><path d="M381 633L414 607L386 582Z" fill="#4252ca" stroke="#4252ca"></path><path d="M483 512L403 443L397 474Z" fill="#00244a" stroke="#00244a"></path><path d="M397 474L403 443L380 447Z" fill="#003d8a" stroke="#003d8a"></path><path d="M383 441L284 364L274 403Z" fill="#001b35" stroke="#001b35"></path><path d="M203 441L156 438L159 467Z" fill="#002d5f" stroke="#002d5f"></path><path d="M159 467L87 440L129 527Z" fill="#5958de" stroke="#5958de"></path><path d="M148 394L203 441L253 416Z" fill="#003d8a" stroke="#003d8a"></path><path d="M240 694L283 695L241 645Z" fill="#715df2" stroke="#715df2"></path><path d="M129 527L129 595L219 572Z" fill="#4252ca" stroke="#4252ca"></path><path d="M207 666L240 694L241 645Z" fill="#17459f" stroke="#17459f"></path><path d="M129 595L150 637L219 572Z" fill="#5958de" stroke="#5958de"></path><path d="M207 666L200 752L240 694Z" fill="#5958de" stroke="#5958de"></path><path d="M405 389L284 364L383 441Z" fill="#715df2" stroke="#715df2"></path><path d="M274 403L284 364L253 416Z" fill="#003574" stroke="#003574"></path><path d="M463 386L405 389L403 443Z" fill="#4252ca" stroke="#4252ca"></path><path d="M403 443L405 389L383 441Z" fill="#003d8a" stroke="#003d8a"></path><path d="M483 512L397 474L411 553Z" fill="#003574" stroke="#003574"></path><path d="M233 321L148 394L253 416Z" fill="#001b35" stroke="#001b35"></path><path d="M52 455L73 559L129 527Z" fill="#003574" stroke="#003574"></path><path d="M381 633L449 629L414 607Z" fill="#715df2" stroke="#715df2"></path><path d="M414 607L464 611L411 553Z" fill="#003574" stroke="#003574"></path><path d="M443 694L449 629L381 633Z" fill="#002d5f" stroke="#002d5f"></path><path d="M449 629L464 611L414 607Z" fill="#001b35" stroke="#001b35"></path><path d="M493 565L483 512L411 553Z" fill="#002d5f" stroke="#002d5f"></path><path d="M87 440L159 467L156 438Z" fill="#002d5f" stroke="#002d5f"></path><path d="M129 527L73 559L129 595Z" fill="#003d8a" stroke="#003d8a"></path><path d="M75 693L100 717L150 637Z" fill="#2d4cb5" stroke="#2d4cb5"></path><path d="M296 763L347 732L283 695Z" fill="#001122" stroke="#001122"></path><path d="M283 695L347 732L315 645Z" fill="#5958de" stroke="#5958de"></path><path d="M464 611L493 565L411 553Z" fill="#00244a" stroke="#00244a"></path><path d="M112 387L87 440L156 438Z" fill="#2d4cb5" stroke="#2d4cb5"></path><path d="M301 314L233 321L284 364Z" fill="#002d5f" stroke="#002d5f"></path><path d="M284 364L233 321L253 416Z" fill="#715df2" stroke="#715df2"></path><path d="M148 394L112 387L156 438Z" fill="#001b35" stroke="#001b35"></path><path d="M359 324L301 314L284 364Z" fill="#00244a" stroke="#00244a"></path><path d="M105 343L112 387L148 394Z" fill="#715df2" stroke="#715df2"></path><path d="M405 389L359 324L284 364Z" fill="#715df2" stroke="#715df2"></path><path d="M347 732L415 718L381 633Z" fill="#001122" stroke="#001122"></path><path d="M449 629L514 663L464 611Z" fill="#003574" stroke="#003574"></path><path d="M540 575L540 574L493 565Z" fill="#001122" stroke="#001122"></path><path d="M415 718L443 694L381 633Z" fill="#003574" stroke="#003574"></path><path d="M150 637L149 721L207 666Z" fill="#715df2" stroke="#715df2"></path><path d="M240 694L296 763L283 695Z" fill="#2d4cb5" stroke="#2d4cb5"></path><path d="M100 717L149 721L150 637Z" fill="#715df2" stroke="#715df2"></path><path d="M200 752L296 763L240 694Z" fill="#003d8a" stroke="#003d8a"></path><path d="M347 732L378 757L415 718Z" fill="#5958de" stroke="#5958de"></path><path d="M149 721L200 752L207 666Z" fill="#4252ca" stroke="#4252ca"></path><path d="M0 522L51 577L73 559Z" fill="#001122" stroke="#001122"></path><path d="M73 559L51 577L129 595Z" fill="#00244a" stroke="#00244a"></path><path d="M483 512L463 386L403 443Z" fill="#4252ca" stroke="#4252ca"></path><path d="M405 389L448 339L359 324Z" fill="#003574" stroke="#003574"></path><path d="M540 442L463 386L483 512Z" fill="#715df2" stroke="#715df2"></path><path d="M272 258L225 300L233 321Z" fill="#00244a" stroke="#00244a"></path><path d="M233 321L172 289L148 394Z" fill="#5958de" stroke="#5958de"></path><path d="M172 289L225 300L167 242Z" fill="#17459f" stroke="#17459f"></path><path d="M0 437L52 455L49 343Z" fill="#5958de" stroke="#5958de"></path><path d="M87 440L52 455L129 527Z" fill="#4252ca" stroke="#4252ca"></path><path d="M296 763L378 757L347 732Z" fill="#00244a" stroke="#00244a"></path><path d="M494 811L540 683L443 694Z" fill="#5958de" stroke="#5958de"></path><path d="M463 386L448 339L405 389Z" fill="#003574" stroke="#003574"></path><path d="M361 262L272 258L301 314Z" fill="#001b35" stroke="#001b35"></path><path d="M75 693L150 637L129 595Z" fill="#00244a" stroke="#00244a"></path><path d="M149 721L169 811L200 752Z" fill="#001b35" stroke="#001b35"></path><path d="M172 289L105 343L148 394Z" fill="#715df2" stroke="#715df2"></path><path d="M49 343L52 455L87 440Z" fill="#00244a" stroke="#00244a"></path><path d="M51 577L75 693L129 595Z" fill="#5958de" stroke="#5958de"></path><path d="M463 386L453 338L448 339Z" fill="#5958de" stroke="#5958de"></path><path d="M394 248L361 262L359 324Z" fill="#001122" stroke="#001122"></path><path d="M540 575L493 565L464 611Z" fill="#2d4cb5" stroke="#2d4cb5"></path><path d="M493 565L540 574L483 512Z" fill="#4252ca" stroke="#4252ca"></path><path d="M463 386L540 341L453 338Z" fill="#002d5f" stroke="#002d5f"></path><path d="M540 640L540 575L464 611Z" fill="#715df2" stroke="#715df2"></path><path d="M296 763L386 778L378 757Z" fill="#00244a" stroke="#00244a"></path><path d="M378 757L386 778L415 718Z" fill="#5958de" stroke="#5958de"></path><path d="M443 694L514 663L449 629Z" fill="#001b35" stroke="#001b35"></path><path d="M384 837L386 778L296 763Z" fill="#001b35" stroke="#001b35"></path><path d="M540 683L514 663L443 694Z" fill="#001b35" stroke="#001b35"></path><path d="M272 258L233 321L301 314Z" fill="#17459f" stroke="#17459f"></path><path d="M225 300L172 289L233 321Z" fill="#715df2" stroke="#715df2"></path><path d="M540 574L540 442L483 512Z" fill="#4252ca" stroke="#4252ca"></path><path d="M361 262L301 314L359 324Z" fill="#001b35" stroke="#001b35"></path><path d="M540 683L540 640L514 663Z" fill="#002d5f" stroke="#002d5f"></path><path d="M514 663L540 640L464 611Z" fill="#003d8a" stroke="#003d8a"></path><path d="M0 459L0 522L52 455Z" fill="#4252ca" stroke="#4252ca"></path><path d="M52 455L0 522L73 559Z" fill="#002d5f" stroke="#002d5f"></path><path d="M51 577L46 694L75 693Z" fill="#003574" stroke="#003574"></path><path d="M169 811L240 814L200 752Z" fill="#001122" stroke="#001122"></path><path d="M200 752L240 814L296 763Z" fill="#715df2" stroke="#715df2"></path><path d="M394 248L359 324L448 339Z" fill="#2d4cb5" stroke="#2d4cb5"></path><path d="M75 693L22 741L100 717Z" fill="#001122" stroke="#001122"></path><path d="M88 778L169 811L149 721Z" fill="#002d5f" stroke="#002d5f"></path><path d="M0 662L46 694L51 577Z" fill="#002d5f" stroke="#002d5f"></path><path d="M0 522L0 581L51 577Z" fill="#4252ca" stroke="#4252ca"></path><path d="M0 437L0 459L52 455Z" fill="#003574" stroke="#003574"></path><path d="M540 442L540 393L463 386Z" fill="#00244a" stroke="#00244a"></path><path d="M475 275L394 248L448 339Z" fill="#5958de" stroke="#5958de"></path><path d="M49 343L87 440L112 387Z" fill="#2d4cb5" stroke="#2d4cb5"></path><path d="M88 778L149 721L100 717Z" fill="#17459f" stroke="#17459f"></path><path d="M479 814L443 694L415 718Z" fill="#003d8a" stroke="#003d8a"></path><path d="M80 310L49 343L105 343Z" fill="#002d5f" stroke="#002d5f"></path><path d="M105 343L49 343L112 387Z" fill="#5958de" stroke="#5958de"></path><path d="M94 278L80 310L105 343Z" fill="#715df2" stroke="#715df2"></path><path d="M94 278L105 343L172 289Z" fill="#00244a" stroke="#00244a"></path><path d="M475 275L448 339L453 338Z" fill="#001122" stroke="#001122"></path><path d="M361 262L268 211L272 258Z" fill="#001122" stroke="#001122"></path><path d="M0 581L0 662L51 577Z" fill="#5958de" stroke="#5958de"></path><path d="M22 741L88 778L100 717Z" fill="#715df2" stroke="#715df2"></path><path d="M22 741L75 693L46 694Z" fill="#001122" stroke="#001122"></path><path d="M268 211L167 242L272 258Z" fill="#4252ca" stroke="#4252ca"></path><path d="M272 258L167 242L225 300Z" fill="#003574" stroke="#003574"></path><path d="M0 662L0 680L46 694Z" fill="#5958de" stroke="#5958de"></path><path d="M120 240L94 278L172 289Z" fill="#715df2" stroke="#715df2"></path><path d="M0 275L0 352L49 343Z" fill="#2d4cb5" stroke="#2d4cb5"></path><path d="M540 341L487 290L453 338Z" fill="#2d4cb5" stroke="#2d4cb5"></path><path d="M310 870L384 837L296 763Z" fill="#4252ca" stroke="#4252ca"></path><path d="M386 778L479 814L415 718Z" fill="#2d4cb5" stroke="#2d4cb5"></path><path d="M310 870L296 763L240 814Z" fill="#4252ca" stroke="#4252ca"></path><path d="M310 153L268 211L361 262Z" fill="#17459f" stroke="#17459f"></path><path d="M540 393L540 341L463 386Z" fill="#001b35" stroke="#001b35"></path><path d="M540 220L475 275L487 290Z" fill="#00244a" stroke="#00244a"></path><path d="M487 290L475 275L453 338Z" fill="#002d5f" stroke="#002d5f"></path><path d="M0 680L22 741L46 694Z" fill="#001b35" stroke="#001b35"></path><path d="M0 275L49 343L80 310Z" fill="#2d4cb5" stroke="#2d4cb5"></path><path d="M49 343L0 352L0 437Z" fill="#003574" stroke="#003574"></path><path d="M167 242L120 240L172 289Z" fill="#4252ca" stroke="#4252ca"></path><path d="M94 278L0 275L80 310Z" fill="#003d8a" stroke="#003d8a"></path><path d="M138 212L120 240L167 242Z" fill="#003574" stroke="#003574"></path><path d="M199 883L240 814L169 811Z" fill="#001122" stroke="#001122"></path><path d="M241 899L310 870L240 814Z" fill="#715df2" stroke="#715df2"></path><path d="M398 908L479 814L384 837Z" fill="#715df2" stroke="#715df2"></path><path d="M384 837L479 814L386 778Z" fill="#002d5f" stroke="#002d5f"></path><path d="M82 836L141 848L88 778Z" fill="#00244a" stroke="#00244a"></path><path d="M88 778L141 848L169 811Z" fill="#5958de" stroke="#5958de"></path><path d="M540 341L540 302L487 290Z" fill="#003574" stroke="#003574"></path><path d="M479 814L494 811L443 694Z" fill="#715df2" stroke="#715df2"></path><path d="M540 812L494 811L540 857Z" fill="#002d5f" stroke="#002d5f"></path><path d="M174 182L138 212L167 242Z" fill="#715df2" stroke="#715df2"></path><path d="M120 240L74 222L94 278Z" fill="#003d8a" stroke="#003d8a"></path><path d="M475 275L453 226L394 248Z" fill="#003574" stroke="#003574"></path><path d="M394 248L400 199L361 262Z" fill="#002d5f" stroke="#002d5f"></path><path d="M517 197L453 226L475 275Z" fill="#17459f" stroke="#17459f"></path><path d="M0 680L0 748L22 741Z" fill="#4252ca" stroke="#4252ca"></path><path d="M62 853L82 836L88 778Z" fill="#2d4cb5" stroke="#2d4cb5"></path><path d="M310 870L369 877L384 837Z" fill="#4252ca" stroke="#4252ca"></path><path d="M453 226L400 199L394 248Z" fill="#2d4cb5" stroke="#2d4cb5"></path><path d="M268 211L174 182L167 242Z" fill="#001122" stroke="#001122"></path><path d="M141 848L199 883L169 811Z" fill="#001122" stroke="#001122"></path><path d="M310 870L338 960L369 877Z" fill="#001122" stroke="#001122"></path><path d="M62 853L88 778L0 847Z" fill="#002d5f" stroke="#002d5f"></path><path d="M141 848L98 892L199 883Z" fill="#715df2" stroke="#715df2"></path><path d="M199 883L241 899L240 814Z" fill="#715df2" stroke="#715df2"></path><path d="M246 145L174 182L268 211Z" fill="#001b35" stroke="#001b35"></path><path d="M454 156L388 180L400 199Z" fill="#2d4cb5" stroke="#2d4cb5"></path><path d="M400 199L388 180L361 262Z" fill="#002d5f" stroke="#002d5f"></path><path d="M94 198L120 240L138 212Z" fill="#17459f" stroke="#17459f"></path><path d="M94 198L74 222L120 240Z" fill="#4252ca" stroke="#4252ca"></path><path d="M327 960L269 910L215 960Z" fill="#001b35" stroke="#001b35"></path><path d="M241 899L269 910L310 870Z" fill="#17459f" stroke="#17459f"></path><path d="M540 857L494 811L479 814Z" fill="#001b35" stroke="#001b35"></path><path d="M494 811L540 812L540 683Z" fill="#003574" stroke="#003574"></path><path d="M0 271L0 275L94 278Z" fill="#003d8a" stroke="#003d8a"></path><path d="M388 180L310 153L361 262Z" fill="#4252ca" stroke="#4252ca"></path><path d="M174 182L94 198L138 212Z" fill="#17459f" stroke="#17459f"></path><path d="M74 222L0 271L94 278Z" fill="#00244a" stroke="#00244a"></path><path d="M84 139L94 198L174 182Z" fill="#17459f" stroke="#17459f"></path><path d="M0 144L0 271L74 222Z" fill="#715df2" stroke="#715df2"></path><path d="M82 836L80 867L141 848Z" fill="#001122" stroke="#001122"></path><path d="M199 883L215 960L241 899Z" fill="#002d5f" stroke="#002d5f"></path><path d="M0 847L88 778L22 741Z" fill="#001b35" stroke="#001b35"></path><path d="M368 117L300 146L310 153Z" fill="#003574" stroke="#003574"></path><path d="M310 153L300 146L268 211Z" fill="#001122" stroke="#001122"></path><path d="M62 853L80 867L82 836Z" fill="#003d8a" stroke="#003d8a"></path><path d="M300 146L246 145L268 211Z" fill="#2d4cb5" stroke="#2d4cb5"></path><path d="M399 911L398 908L338 960Z" fill="#002d5f" stroke="#002d5f"></path><path d="M369 877L398 908L384 837Z" fill="#00244a" stroke="#00244a"></path><path d="M338 960L398 908L369 877Z" fill="#003d8a" stroke="#003d8a"></path><path d="M398 908L491 915L479 814Z" fill="#00244a" stroke="#00244a"></path><path d="M0 878L98 892L80 867Z" fill="#003d8a" stroke="#003d8a"></path><path d="M80 867L98 892L141 848Z" fill="#5958de" stroke="#5958de"></path><path d="M540 302L540 220L487 290Z" fill="#002d5f" stroke="#002d5f"></path><path d="M453 226L454 156L400 199Z" fill="#17459f" stroke="#17459f"></path><path d="M388 180L368 117L310 153Z" fill="#002d5f" stroke="#002d5f"></path><path d="M540 220L517 197L475 275Z" fill="#003574" stroke="#003574"></path><path d="M491 915L540 857L479 814Z" fill="#17459f" stroke="#17459f"></path><path d="M517 197L454 156L453 226Z" fill="#715df2" stroke="#715df2"></path><path d="M0 748L0 847L22 741Z" fill="#001b35" stroke="#001b35"></path><path d="M62 853L0 878L80 867Z" fill="#003d8a" stroke="#003d8a"></path><path d="M540 220L540 202L517 197Z" fill="#003d8a" stroke="#003d8a"></path><path d="M540 156L450 122L454 156Z" fill="#003d8a" stroke="#003d8a"></path><path d="M450 122L368 117L388 180Z" fill="#2d4cb5" stroke="#2d4cb5"></path><path d="M255 23L202 108L246 145Z" fill="#00244a" stroke="#00244a"></path><path d="M215 960L269 910L241 899Z" fill="#17459f" stroke="#17459f"></path><path d="M269 910L327 960L310 870Z" fill="#003574" stroke="#003574"></path><path d="M399 911L491 915L398 908Z" fill="#00244a" stroke="#00244a"></path><path d="M327 960L338 960L310 870Z" fill="#5958de" stroke="#5958de"></path><path d="M197 960L215 960L199 883Z" fill="#2d4cb5" stroke="#2d4cb5"></path><path d="M197 960L199 883L125 960Z" fill="#00244a" stroke="#00244a"></path><path d="M246 145L202 108L174 182Z" fill="#002d5f" stroke="#002d5f"></path><path d="M94 198L33 137L74 222Z" fill="#715df2" stroke="#715df2"></path><path d="M320 56L246 145L300 146Z" fill="#2d4cb5" stroke="#2d4cb5"></path><path d="M125 960L199 883L98 892Z" fill="#003d8a" stroke="#003d8a"></path><path d="M459 960L491 915L399 911Z" fill="#002d5f" stroke="#002d5f"></path><path d="M159 95L84 139L174 182Z" fill="#003d8a" stroke="#003d8a"></path><path d="M0 847L0 878L62 853Z" fill="#002d5f" stroke="#002d5f"></path><path d="M454 156L450 122L388 180Z" fill="#2d4cb5" stroke="#2d4cb5"></path><path d="M540 156L454 156L517 197Z" fill="#17459f" stroke="#17459f"></path><path d="M84 960L125 960L98 892Z" fill="#00244a" stroke="#00244a"></path><path d="M162 82L159 95L202 108Z" fill="#00244a" stroke="#00244a"></path><path d="M202 108L159 95L174 182Z" fill="#001122" stroke="#001122"></path><path d="M162 82L202 108L211 0Z" fill="#002d5f" stroke="#002d5f"></path><path d="M540 202L540 156L517 197Z" fill="#715df2" stroke="#715df2"></path><path d="M500 960L540 913L491 915Z" fill="#715df2" stroke="#715df2"></path><path d="M491 915L540 913L540 857Z" fill="#2d4cb5" stroke="#2d4cb5"></path><path d="M338 960L459 960L399 911Z" fill="#001122" stroke="#001122"></path><path d="M320 56L300 146L368 117Z" fill="#002d5f" stroke="#002d5f"></path><path d="M159 95L50 67L84 139Z" fill="#4252ca" stroke="#4252ca"></path><path d="M50 67L33 137L84 139Z" fill="#17459f" stroke="#17459f"></path><path d="M84 139L33 137L94 198Z" fill="#002d5f" stroke="#002d5f"></path><path d="M0 878L84 960L98 892Z" fill="#002d5f" stroke="#002d5f"></path><path d="M512 75L441 91L450 122Z" fill="#00244a" stroke="#00244a"></path><path d="M450 122L441 91L368 117Z" fill="#003d8a" stroke="#003d8a"></path><path d="M321 53L320 56L368 117Z" fill="#4252ca" stroke="#4252ca"></path><path d="M459 960L500 960L491 915Z" fill="#003574" stroke="#003574"></path><path d="M0 129L0 144L33 137Z" fill="#001b35" stroke="#001b35"></path><path d="M33 137L0 144L74 222Z" fill="#003d8a" stroke="#003d8a"></path><path d="M419 0L321 53L368 117Z" fill="#4252ca" stroke="#4252ca"></path><path d="M320 56L255 23L246 145Z" fill="#003574" stroke="#003574"></path><path d="M50 67L0 129L33 137Z" fill="#2d4cb5" stroke="#2d4cb5"></path><path d="M500 960L540 960L540 913Z" fill="#00244a" stroke="#00244a"></path><path d="M0 878L0 960L84 960Z" fill="#003d8a" stroke="#003d8a"></path><path d="M302 0L255 23L321 53Z" fill="#2d4cb5" stroke="#2d4cb5"></path><path d="M321 53L255 23L320 56Z" fill="#5958de" stroke="#5958de"></path><path d="M162 82L50 67L159 95Z" fill="#4252ca" stroke="#4252ca"></path><path d="M540 156L512 75L450 122Z" fill="#715df2" stroke="#715df2"></path><path d="M323 0L302 0L321 53Z" fill="#00244a" stroke="#00244a"></path><path d="M153 20L50 67L162 82Z" fill="#5958de" stroke="#5958de"></path><path d="M202 0L153 20L162 82Z" fill="#5958de" stroke="#5958de"></path><path d="M323 0L321 53L419 0Z" fill="#001b35" stroke="#001b35"></path><path d="M255 23L211 0L202 108Z" fill="#001b35" stroke="#001b35"></path><path d="M419 0L368 117L441 91Z" fill="#00244a" stroke="#00244a"></path><path d="M302 0L211 0L255 23Z" fill="#00244a" stroke="#00244a"></path><path d="M211 0L202 0L162 82Z" fill="#001b35" stroke="#001b35"></path><path d="M463 0L419 0L441 91Z" fill="#00244a" stroke="#00244a"></path><path d="M540 156L540 40L512 75Z" fill="#00244a" stroke="#00244a"></path><path d="M512 75L463 0L441 91Z" fill="#2d4cb5" stroke="#2d4cb5"></path><path d="M540 40L463 0L512 75Z" fill="#002d5f" stroke="#002d5f"></path><path d="M91 0L50 67L153 20Z" fill="#001122" stroke="#001122"></path><path d="M68 0L0 42L50 67Z" fill="#4252ca" stroke="#4252ca"></path><path d="M50 67L0 42L0 129Z" fill="#003574" stroke="#003574"></path><path d="M202 0L91 0L153 20Z" fill="#001b35" stroke="#001b35"></path><path d="M91 0L68 0L50 67Z" fill="#001122" stroke="#001122"></path><path d="M540 40L540 0L463 0Z" fill="#17459f" stroke="#17459f"></path><path d="M68 0L0 0L0 42Z" fill="#001b35" stroke="#001b35"></path></g></svg>